<?xml version="1.0" encoding="UTF-8"?>
<svg version="1.1" xmlns="http://www.w3.org/2000/svg" width="512" height="512">
<path d="M0 0 C4.14098654 0.26992348 7.85800124 1.12205127 11.81352234 2.28994751 C12.58171232 2.50868625 13.34990231 2.72742498 14.14137077 2.95279217 C16.69331264 3.68187186 19.2412347 4.42408783 21.78935242 5.16641235 C23.61028733 5.68959787 25.431455 6.21197383 27.25283813 6.7335968 C32.16665064 8.14338317 37.07708039 9.56463197 41.98696136 10.98804092 C47.1501399 12.48275997 52.31636252 13.96688505 57.48222351 15.45230103 C68.97830462 18.76018503 80.46983974 22.08367963 91.96059418 25.41001129 C96.45115107 26.7095107 100.94225535 28.00711361 105.43339539 29.30459595 C119.60483977 33.39916139 133.77457033 37.49958744 147.9418335 41.6085968 C167.95237936 47.41231396 187.97215566 53.18352951 207.99638367 58.93984985 C209.52253747 59.37860024 211.04869103 59.81735146 212.57484436 60.25610352 C218.59853444 61.9877953 224.6222714 63.71932394 230.64608765 65.45057678 C240.69708444 68.33931848 250.74741377 71.23037142 260.79716492 74.1234436 C261.82901948 74.42048061 261.82901948 74.42048061 262.88171959 74.72351837 C269.70957452 76.68907056 276.53731782 78.65500981 283.36483288 80.62174225 C286.72115424 81.58855556 290.07751099 82.55524597 293.43388367 83.5218811 C294.09796549 83.71314323 294.76204731 83.90440536 295.44625282 84.10146332 C304.7687567 86.78618474 314.09305836 89.4645862 323.41860962 92.13870239 C328.69855953 93.6527622 333.97803751 95.16846467 339.25741673 96.68451309 C342.84195978 97.71372841 346.42675752 98.74203576 350.01222229 99.76803589 C365.0300836 104.06590217 380.01386622 108.42468073 394.87138367 113.25234985 C396.20498133 119.64750253 396.20498133 119.64750253 394.73490906 122.31289673 C394.15217224 122.86010376 393.56943542 123.40731079 392.96903992 123.97109985 C392.3251532 124.59371704 391.68126648 125.21633423 391.01786804 125.8578186 C390.3301532 126.48301392 389.64243835 127.10820923 388.93388367 127.75234985 C388.28097351 128.37754517 387.62806335 129.00274048 386.95536804 129.6468811 C383.69305779 132.74559468 380.33867038 135.7226083 376.92997742 138.65859985 C372.35251999 142.63598253 368.12091143 146.93030455 363.87138367 151.25234985 C355.44946409 159.81798819 355.44946409 159.81798819 350.90263367 163.72109985 C346.13971852 167.81437742 341.77424241 172.27881923 337.37138367 176.75234985 C332.35210857 181.85219116 327.31092742 186.80418468 321.88114929 191.46524048 C318.03829176 194.88235869 314.4752968 198.5869365 310.87138367 202.25234985 C306.02497963 207.18145703 301.14140748 211.94207196 295.89872742 216.44766235 C292.0514031 219.87244816 288.48123681 223.58089512 284.87138367 227.25234985 C280.02497963 232.18145703 275.14140748 236.94207196 269.89872742 241.44766235 C266.0514031 244.87244816 262.48123681 248.58089512 258.87138367 252.25234985 C250.44946409 260.81798819 250.44946409 260.81798819 245.90263367 264.72109985 C241.13971852 268.81437742 236.77424241 273.27881923 232.37138367 277.75234985 C227.35210857 282.85219116 222.31092742 287.80418468 216.88114929 292.46524048 C213.03829176 295.88235869 209.4752968 299.5869365 205.87138367 303.25234985 C201.02497963 308.18145703 196.14140748 312.94207196 190.89872742 317.44766235 C187.0514031 320.87244816 183.48123681 324.58089512 179.87138367 328.25234985 C175.02497963 333.18145703 170.14140748 337.94207196 164.89872742 342.44766235 C161.0514031 345.87244816 157.48123681 349.58089512 153.87138367 353.25234985 C145.44946409 361.81798819 145.44946409 361.81798819 140.90263367 365.72109985 C136.13971852 369.81437742 131.77424241 374.27881923 127.37138367 378.75234985 C122.2648978 383.94080179 117.13329398 388.97796423 111.60429382 393.71572876 C109.33672738 395.72644491 107.33589959 397.93974679 105.30888367 400.18984985 C101.51014684 404.08091709 101.51014684 404.08091709 98.74638367 404.82266235 C96.80888367 404.81484985 96.80888367 404.81484985 93.87138367 404.25234985 C90.97989551 397.15602071 89.15315006 389.88758492 87.32817078 382.45767212 C86.98296237 381.06746448 86.63733368 379.67736115 86.2913208 378.28735352 C85.35213448 374.50930891 84.41887116 370.72982348 83.48666453 366.95005155 C82.48954328 362.91145586 81.48696627 358.87421459 80.48504639 354.83680725 C78.56900404 347.11223277 76.65791203 339.38644225 74.74854141 331.66021627 C72.64807989 323.16180639 70.54195361 314.66480438 68.43536627 306.16791129 C59.28849498 269.27152608 50.18121359 232.36537121 41.08476257 195.45652771 C35.83775714 174.1669857 30.58020192 152.88007705 25.31167412 131.59584999 C23.67763118 124.99401392 22.04554714 118.39169511 20.41410828 111.78921509 C19.43899314 107.84331713 18.46380824 103.89743643 17.48857117 99.9515686 C17.25133646 98.99166456 17.01410175 98.03176052 16.76967812 97.04276848 C13.82285606 85.12107337 10.86549631 73.20207067 7.89450073 61.28637695 C6.47035005 55.57406064 5.05066538 49.86063779 3.63237476 44.14686394 C2.5193743 39.66458086 1.40046244 35.18383132 0.27687836 30.70419025 C-0.56044167 27.35833302 -1.38876024 24.01026087 -2.21846008 20.6625061 C-2.51723053 19.47969559 -2.81600098 18.29688507 -3.12382507 17.07823181 C-3.3908725 15.99366196 -3.65791992 14.9090921 -3.93305969 13.79165649 C-4.16569016 12.85970963 -4.39832062 11.92776276 -4.63800049 10.96757507 C-5.17907664 7.97308637 -5.34683172 5.28844296 -5.12861633 2.25234985 C-3.12861633 0.25234985 -3.12861633 0.25234985 0 0 Z M6.87138367 12.25234985 C10.3323001 28.65848042 14.47360572 44.89859505 18.56303406 61.15628052 C19.50352929 64.89749404 20.4412305 68.63940775 21.37919617 72.3812561 C23.20725564 79.67229257 25.03831464 86.96257105 26.87138367 94.25234985 C31.94769878 89.93022664 36.89480748 85.51324848 41.74638367 80.93984985 C42.47526794 80.25414917 43.20415222 79.56844849 43.9551239 78.86196899 C50.08677555 73.06129651 56.07120738 67.12191278 61.98612976 61.10073853 C65.83999526 57.19705083 69.80334483 53.51744311 73.95903015 49.93765259 C76.89020149 47.3544947 79.63260819 44.5990387 82.37138367 41.81484985 C82.90763367 41.27408813 83.44388367 40.73332642 83.99638367 40.17617798 C85.29042403 38.87058369 86.5812654 37.56181989 87.87138367 36.25234985 C85.18012058 33.56108676 82.17825315 33.00459825 78.60771179 32.00576782 C77.85960739 31.79089722 77.11150299 31.57602661 76.34072876 31.35464478 C73.86315011 30.64484452 71.38298794 29.94457102 68.90263367 29.24453735 C67.1837817 28.75465067 65.46507413 28.26425706 63.74650574 27.77337646 C60.14294777 26.74555165 56.53818329 25.72211346 52.93241882 24.70205688 C48.30335016 23.3924059 43.67662667 22.07469528 39.05068207 20.75405693 C35.50152023 19.74127422 31.95154627 18.73136528 28.40127563 17.72247696 C26.69461985 17.23740336 24.9881274 16.75175472 23.28179932 16.26552963 C20.90031231 15.58767984 18.51785351 14.91336757 16.13505554 14.24014282 C15.42538132 14.03756866 14.71570709 13.83499451 13.98452759 13.62628174 C10.48209938 12.60101863 10.48209938 12.60101863 6.87138367 12.25234985 Z M105.87138367 41.25234985 C107.3686546 50.42802899 109.54153135 59.40687697 111.78544617 68.4203186 C112.16402654 69.95152122 112.54230705 71.482798 112.92030334 73.0141449 C113.90698009 77.00798475 114.89767656 81.00081643 115.88926697 84.99343872 C116.90400583 89.08238645 117.91486604 93.17229271 118.92607117 97.26211548 C120.90408699 105.25979351 122.88635836 113.25640871 124.87138367 121.25234985 C129.78790055 117.06292537 134.5992873 112.79850709 139.30888367 108.37734985 C140.33562195 107.41538696 140.33562195 107.41538696 141.38310242 106.43399048 C147.14043972 101.00759501 152.7503812 95.44288956 158.2910614 89.79580688 C162.02669319 86.0087336 165.8842773 82.45751108 169.91239929 78.98428345 C173.03191797 76.22632414 175.95039247 73.28009849 178.87138367 70.31484985 C179.45532898 69.72639282 180.03927429 69.13793579 180.64091492 68.53164673 C182.05343172 67.10755192 183.46276177 65.68029736 184.87138367 64.25234985 C182.26167532 61.64264151 179.46397984 61.07501807 176.00663757 60.0975647 C175.30076004 59.89244766 174.59488251 59.68733063 173.86761475 59.47599792 C171.52956527 58.79852783 169.18889029 58.13068057 166.84794617 57.46328735 C165.22358768 56.99574229 163.59935217 56.52776981 161.97523499 56.05938721 C158.56843679 55.07848459 155.16035028 54.10223142 151.75126648 53.12930298 C147.3819126 51.88200504 143.01568412 50.62415265 138.65033913 49.3629055 C135.29546734 48.39471102 131.93912495 47.43170079 128.58230209 46.47029495 C126.971924 46.00849216 125.36197816 45.54517925 123.75247574 45.08033371 C121.50140657 44.43113298 119.24848188 43.78882757 116.99491882 43.14834595 C115.99729774 42.85851082 115.99729774 42.85851082 114.97952271 42.56282043 C111.75706038 41.65483003 109.26415127 41.25234985 105.87138367 41.25234985 Z M94.87138367 43.25234985 C94.38669617 43.74863892 93.90200867 44.24492798 93.40263367 44.7562561 C92.39716492 45.77526001 92.39716492 45.77526001 91.37138367 46.81484985 C90.72169617 47.47613892 90.07200867 48.13742798 89.40263367 48.8187561 C87.38377582 50.75972592 85.33892599 52.58376603 83.21513367 54.4046936 C78.18474345 58.77346796 73.54474512 63.50817989 68.87138367 68.25234985 C63.66034616 73.54234248 58.44313546 78.71168194 52.80497742 83.54580688 C49.340225 86.60371338 46.11671949 89.90257629 42.87138367 93.18984985 C42.19204773 93.87369751 41.51271179 94.55754517 40.81278992 95.26211548 C39.16330008 96.92322145 37.51621686 98.58663499 35.87138367 100.25234985 C39.10712143 102.40950836 42.17802224 103.36144791 45.86552429 104.40713501 C46.57315414 104.61225204 47.280784 104.81736908 48.00985718 105.02870178 C50.34764702 105.70482208 52.68754401 106.37329919 55.02763367 107.04141235 C56.65293608 107.50903524 58.27813823 107.97700676 59.90324402 108.4453125 C63.30850468 109.42534795 66.71479159 110.40170683 70.12187195 111.37539673 C74.49188264 112.62450918 78.85947919 113.88182988 83.22637177 115.1417942 C86.5814783 116.10901435 89.93769724 117.07232491 93.29428101 118.03440475 C94.90537188 118.49660341 96.51614243 118.95992013 98.12658691 119.424366 C100.37570795 120.07227369 102.62624122 120.71501582 104.87724304 121.35635376 C105.87790047 121.64618889 105.87790047 121.64618889 106.89877319 121.94187927 C109.66913553 122.72606668 111.97359985 123.25234985 114.87138367 123.25234985 C114.29155498 118.07161028 113.47184188 113.13032275 112.22904968 108.05776978 C112.06630554 107.38842407 111.9035614 106.71907837 111.73588562 106.02944946 C111.20364437 103.8460776 110.66478361 101.66440881 110.12528992 99.4828186 C109.75013919 97.95449805 109.37521926 96.42612083 109.0005188 94.89768982 C108.21760669 91.70891542 107.43128231 88.52100655 106.6426239 85.33364868 C105.63227704 81.24875933 104.63152922 77.16158672 103.63340855 73.07369518 C102.86293414 69.92342636 102.08693237 66.7745391 101.30929375 63.62603188 C100.93788112 62.11898846 100.56830648 60.61149082 100.20060921 59.10353661 C99.68713001 57.00089014 99.16612028 54.90025071 98.64311218 52.79995728 C98.34856644 51.60497116 98.05402069 50.40998505 97.75054932 49.17878723 C96.98098087 46.10057651 96.98098087 46.10057651 94.87138367 43.25234985 Z M202.87138367 68.25234985 C203.46074958 73.58343977 204.34224235 78.64545897 205.63725281 83.86172485 C205.8129631 84.57490372 205.9886734 85.28808258 206.16970825 86.02287292 C206.74430602 88.3504657 207.32535772 90.6763933 207.90653992 93.00234985 C208.3090769 94.62749453 208.71120579 96.25274034 209.11294556 97.87808228 C210.1659547 102.13363562 211.22446578 106.38780138 212.28416443 110.64169312 C213.36672168 114.99154952 214.44402027 119.34270763 215.52177429 123.6937561 C217.63319295 132.2145634 219.75043121 140.73391068 221.87138367 149.25234985 C222.98179471 148.30249566 224.09192969 147.35231875 225.20195007 146.40200806 C225.82018646 145.87291336 226.43842285 145.34381866 227.07539368 144.7986908 C235.6901084 137.38145231 243.76728715 129.45868655 251.73222351 121.35464478 C255.63488247 117.40344528 259.63694772 113.67407597 263.84501648 110.05166626 C267.50916324 106.79808052 270.92845982 103.2992163 274.37138367 99.81484985 C275.09841492 99.08330688 275.82544617 98.35176392 276.57450867 97.59805298 C278.34247865 95.81845161 280.10804744 94.03654067 281.87138367 92.25234985 C279.19621092 89.57717711 276.23031482 89.00891879 272.68363953 88.00576782 C271.9436824 87.79089722 271.20372528 87.57602661 270.44134521 87.35464478 C267.99141224 86.64496726 265.53889938 85.94468462 263.08622742 85.24453735 C261.38738885 84.75468373 259.688706 84.26428975 257.99017334 83.77337646 C254.42947999 82.74566277 250.86761137 81.72217039 247.30473328 80.70205688 C242.72738305 79.39147809 238.1520255 78.07410908 233.57739925 76.75405693 C229.22677153 75.49881099 224.8753424 74.24635585 220.52372742 72.99453735 C219.68788557 72.75396481 218.85204372 72.51339226 217.99087334 72.26552963 C215.63759164 71.5888843 213.28376876 70.91416036 210.92973328 70.24014282 C210.22581451 70.03756866 209.52189575 69.83499451 208.79664612 69.62628174 C205.87989969 68.66113742 205.87989969 68.66113742 202.87138367 68.25234985 Z M191.87138367 71.25234985 C191.31450867 71.82082642 190.75763367 72.38930298 190.18388367 72.9750061 C189.42075867 73.74715454 188.65763367 74.51930298 187.87138367 75.31484985 C187.12888367 76.06895142 186.38638367 76.82305298 185.62138367 77.6000061 C183.50784472 79.6384904 181.37756257 81.5573333 179.15263367 83.4671936 C174.31945199 87.66052278 169.85765016 92.19407267 165.37138367 96.75234985 C160.33296343 101.87164361 155.27348333 106.84919809 149.82255554 111.52822876 C146.3533303 114.59375287 143.12264414 117.89657508 139.87138367 121.18984985 C139.19204773 121.87369751 138.51271179 122.55754517 137.81278992 123.26211548 C136.16330008 124.92322145 134.51621686 126.58663499 132.87138367 128.25234985 C136.40790291 130.22063068 140.12471514 131.30629778 143.99491882 132.40713501 C144.70430099 132.61225204 145.41368317 132.81736908 146.14456177 133.02870178 C148.482094 133.70347794 150.82120799 134.37257631 153.16044617 135.04141235 C154.78669255 135.509113 156.41286134 135.97708352 158.03895569 136.4453125 C161.44267998 137.42448186 164.84716574 138.40094316 168.25224304 139.37539673 C172.62291231 140.62632894 176.99187341 141.88310868 181.36031532 143.1417942 C184.7156567 144.10804214 188.07175166 145.07164974 191.42809677 146.03440475 C193.03990035 146.49699959 194.6514962 146.96031881 196.26288223 147.424366 C198.51005921 148.07098474 200.75819424 148.71415447 203.00663757 149.35635376 C203.67576675 149.54957718 204.34489594 149.7428006 205.03430176 149.94187927 C208.39984837 150.9268826 208.39984837 150.9268826 211.87138367 151.25234985 C211.29155498 146.07161028 210.47184188 141.13032275 209.22904968 136.05776978 C209.06630554 135.38842407 208.9035614 134.71907837 208.73588562 134.02944946 C208.20364437 131.8460776 207.66478361 129.66440881 207.12528992 127.4828186 C206.75013919 125.95449805 206.37521926 124.42612083 206.0005188 122.89768982 C205.21760669 119.70891542 204.43128231 116.52100655 203.6426239 113.33364868 C202.63227704 109.24875933 201.63152922 105.16158672 200.63340855 101.07369518 C199.86293414 97.92342636 199.08693237 94.7745391 198.30929375 91.62603188 C197.93788112 90.11898846 197.56830648 88.61149082 197.20060921 87.10353661 C196.68713001 85.00089014 196.16612028 82.90025071 195.64311218 80.79995728 C195.34856644 79.60497116 195.05402069 78.40998505 194.75054932 77.17878723 C193.98098087 74.10057651 193.98098087 74.10057651 191.87138367 71.25234985 Z M299.87138367 96.25234985 C301.37366065 105.39572492 303.50480575 114.3591525 305.71513367 123.3500061 C306.08871107 124.87646998 306.46220403 126.40295453 306.83561707 127.92945862 C307.61322104 131.1043302 308.39356872 134.27851303 309.17558289 137.45230103 C310.1780048 141.52264839 311.17073436 145.59529459 312.16117096 149.66857243 C312.92671138 152.8103732 313.69864537 155.95057677 314.47241211 159.09036064 C314.84151348 160.59253258 315.20829805 162.09527576 315.57272339 163.59858894 C316.08029262 165.68940102 316.59674233 167.77782154 317.11552429 169.86587524 C317.40705383 171.05403336 317.69858337 172.24219147 317.99894714 173.46635437 C318.66820353 176.35815762 318.66820353 176.35815762 320.87138367 178.25234985 C321.28388367 177.83461304 321.69638367 177.41687622 322.12138367 176.98648071 C324.03527144 175.05149959 325.95330037 173.12067184 327.87138367 171.18984985 C328.5197821 170.53307251 329.16818054 169.87629517 329.83622742 169.19961548 C333.06822687 165.95161603 336.33310734 162.80575139 339.80888367 159.8187561 C344.399417 155.86087806 348.62401081 151.57220348 352.87138367 147.25234985 C357.77717669 142.26284023 362.71981513 137.43045563 368.02763367 132.86904907 C370.76428551 130.46940547 373.32224261 127.91066532 375.87138367 125.31484985 C376.35993835 124.82178345 376.84849304 124.32871704 377.35185242 123.82070923 C378.52741892 122.63361757 379.69977193 121.44334487 380.87138367 120.25234985 C377.25290338 118.22810512 373.41911336 117.13813928 369.45658875 116.00576782 C368.71633957 115.79089722 367.97609039 115.57602661 367.21340942 115.35464478 C364.77364918 114.64751139 362.33232601 113.94594789 359.89091492 113.24453735 C358.19500173 112.75445124 356.49917669 112.26406005 354.80343628 111.77337646 C351.25425465 110.747233 347.70435131 109.72363986 344.15385437 108.70205688 C339.5927834 107.38965642 335.03304695 106.0726917 330.47377491 104.75405693 C326.97497181 103.74234382 323.4757366 102.73213287 319.97633934 101.72247696 C318.2940648 101.23709014 316.61186594 100.75144092 314.92974281 100.26552963 C312.58622754 99.58900001 310.24219963 98.91427932 307.897995 98.24014282 C307.19721832 98.03756866 306.49644165 97.83499451 305.77442932 97.62628174 C302.86906111 96.66090657 302.86906111 96.66090657 299.87138367 96.25234985 Z M286.64872742 101.4125061 C285.6997044 102.37759157 284.75321211 103.34517031 283.80888367 104.31484985 C280.67437675 107.51969633 277.52852964 110.58125874 274.12528992 113.4984436 C269.11911772 117.82943931 264.51443455 122.53894971 259.87138367 127.25234985 C254.63009169 132.57305534 249.38246086 137.77707328 243.71122742 142.63955688 C240.79913326 145.19227636 238.08592682 147.93029515 235.37138367 150.68984985 C234.83513367 151.23061157 234.29888367 151.77137329 233.74638367 152.32852173 C232.45234331 153.63411602 231.16150193 154.94287982 229.87138367 156.25234985 C233.12145622 158.41906489 235.77646569 159.22651016 239.5266571 160.29946899 C240.19860107 160.49322617 240.87054504 160.68698334 241.56285095 160.88661194 C243.78400948 161.52552895 246.0072778 162.15672264 248.23075867 162.7875061 C249.77921275 163.23032876 251.32757162 163.67348445 252.87583923 164.11695862 C256.12306971 165.04577926 259.37134225 165.97083625 262.6204071 166.89321899 C266.77266802 168.07228986 270.92235149 169.2601489 275.07130051 170.45081425 C278.27032748 171.36789083 281.47062296 172.28047368 284.67131805 173.19170952 C286.20101302 173.6277428 287.73033136 174.06509974 289.25925446 174.50383186 C291.40442421 175.11861797 293.55121878 175.72737492 295.6985321 176.33462524 C296.91748169 176.68167007 298.13643127 177.0287149 299.39231873 177.38627625 C302.87767725 178.25391657 306.30934975 178.80863622 309.87138367 179.25234985 C307.85780072 170.88796736 305.84098036 162.52437454 303.8202095 154.161726 C302.88162296 150.27710209 301.94408492 146.39223182 301.00907898 142.50674438 C300.10390758 138.74541632 299.1958047 134.98480637 298.28580475 131.22464371 C297.94198915 129.80184408 297.59916761 128.3788038 297.25743866 126.95550156 C295.02210947 117.6490726 292.5748885 108.43297841 289.87138367 99.25234985 C288.47433131 99.13619112 288.47433131 99.13619112 286.64872742 101.4125061 Z M30.87138367 110.25234985 C32.88774306 118.58151901 34.90475567 126.91052962 36.92255783 135.23934937 C37.85991058 139.10851691 38.79705463 142.97773474 39.73368835 146.84707642 C40.64092619 150.59494426 41.54875577 154.34266836 42.45696259 158.09030151 C42.79995712 159.50606384 43.1427534 160.92187421 43.48532867 162.33773804 C45.90104393 172.32108576 48.36792465 182.2906735 50.87138367 192.25234985 C58.55134311 186.94907689 64.86799278 180.44969022 71.37138367 173.81484985 C73.54498975 171.60436495 75.72187323 169.39718333 77.90263367 167.1937561 C78.42718643 166.66365936 78.9517392 166.13356262 79.4921875 165.58740234 C82.85405548 162.21264803 86.32020882 159.0355925 89.94511414 155.94937134 C93.87170827 152.4900867 97.50501207 148.72084475 101.18388367 145.00234985 C101.98116882 144.20055298 102.77845398 143.3987561 103.59989929 142.57266235 C105.06957599 141.09433323 106.53821506 139.61497121 108.00541687 138.13418579 C109.62320892 136.5026352 111.24612018 134.8764481 112.87138367 133.25234985 C104.10066269 130.6922078 95.32879507 128.13604205 86.55549335 125.5847578 C82.4804637 124.39960435 78.40582161 123.21315395 74.33207703 122.02359009 C70.39075544 120.87274916 66.44840088 119.72551031 62.5053463 118.58062172 C61.01132613 118.14616791 59.51766404 117.71048049 58.02439308 117.27345848 C49.02930772 114.64198443 40.03398307 112.24015696 30.87138367 110.25234985 Z M129.87138367 138.25234985 C131.3686546 147.42802899 133.54153135 156.40687697 135.78544617 165.4203186 C136.16402654 166.95152122 136.54230705 168.482798 136.92030334 170.0141449 C137.90698009 174.00798475 138.89767656 178.00081643 139.88926697 181.99343872 C140.90400583 186.08238645 141.91486604 190.17229271 142.92607117 194.26211548 C144.90408699 202.25979351 146.88635836 210.25640871 148.87138367 218.25234985 C159.48428617 213.2244488 168.24426269 201.97494063 176.3757782 193.71133423 C179.76500478 190.28221668 183.1670357 186.93868712 186.82450867 183.7953186 C191.57940093 179.70676937 195.96269762 175.27020765 200.37138367 170.81484985 C201.19380554 169.98791626 202.01622742 169.16098267 202.86357117 168.30899048 C204.86850479 166.29240026 206.8710462 164.27349749 208.87138367 162.25234985 C207.98254585 159.89653412 207.98254585 159.89653412 204.8346405 159.17663574 C203.4605618 158.77816755 202.08388235 158.38860916 200.70536804 158.00576782 C199.95580338 157.79089722 199.20623871 157.57602661 198.43395996 157.35464478 C195.94644938 156.6436643 193.45589267 155.94404471 190.96513367 155.24453735 C189.24241385 154.75480293 187.51988177 154.26440768 185.79753113 153.77337646 C181.25592088 152.48070646 176.71160288 151.19781026 172.16673279 149.91665649 C168.44993363 148.86716531 164.73510462 147.81080339 161.02036285 146.75405693 C156.6067616 145.49861991 152.19233554 144.246098 147.77763367 142.99453735 C146.92920395 142.75396481 146.08077423 142.51339226 145.20663452 142.26552963 C142.81732722 141.58883885 140.42747647 140.91410865 138.03739929 140.24014282 C137.32255875 140.03756866 136.6077182 139.83499451 135.87121582 139.62628174 C132.91626724 138.66196097 132.91626724 138.66196097 129.87138367 138.25234985 Z M118.87138367 141.25234985 C118.39829773 141.73067261 117.92521179 142.20899536 117.43778992 142.70181274 C115.25173961 144.90890325 113.06159238 147.11188618 110.87138367 149.31484985 C109.75570007 150.44310181 109.75570007 150.44310181 108.61747742 151.59414673 C105.12794582 155.0988502 101.62315742 158.52426303 97.87138367 161.7484436 C93.29884784 165.68206942 89.09805194 169.95355414 84.87138367 174.25234985 C79.94545571 179.26233801 74.98245244 184.11783763 69.65263367 188.69815063 C67.28741962 190.76187769 65.07312884 192.95370241 62.87138367 195.18984985 C62.10825867 195.96199829 61.34513367 196.73414673 60.55888367 197.5296936 C60.00200867 198.09817017 59.44513367 198.66664673 58.87138367 199.25234985 C61.89626207 201.26893545 64.18083881 202.06310892 67.64945984 203.06826782 C68.8388768 203.41557953 70.02829376 203.76289124 71.25375366 204.12072754 C72.55723087 204.49552461 73.86076535 204.87012256 75.16435242 205.24453735 C76.51189723 205.63529107 77.85933304 206.02642085 79.20666504 206.41790771 C82.03953258 207.23983364 84.87339253 208.05821344 87.70805359 208.87393188 C91.29409388 209.9060103 94.87805865 210.94507503 98.46132946 211.98672295 C101.25183056 212.79732648 104.04321762 213.60484389 106.83487892 214.4114418 C108.78451726 214.97507114 110.73362286 215.54054227 112.68270874 216.1060791 C121.69807258 218.69709826 130.76008846 221.02873183 139.87138367 223.25234985 C138.36910668 214.10897479 136.23796159 205.1455472 134.02763367 196.1546936 C133.65405627 194.62822973 133.28056331 193.10174518 132.90715027 191.57524109 C132.1295463 188.40036951 131.34919861 185.22618667 130.56718445 182.05239868 C129.56476253 177.98205131 128.57203297 173.90940512 127.58159637 169.83612728 C126.81605595 166.6943265 126.04412197 163.55412294 125.27035522 160.41433907 C124.90125385 158.91216712 124.53446929 157.40942395 124.17004395 155.90611076 C123.66247472 153.81529869 123.14602501 151.72687817 122.62724304 149.63882446 C122.3357135 148.45066635 122.04418396 147.26250824 121.74382019 146.03834534 C121.07456381 143.14654209 121.07456381 143.14654209 118.87138367 141.25234985 Z M226.87138367 166.25234985 C227.46074958 171.58343977 228.34224235 176.64545897 229.63725281 181.86172485 C229.8129631 182.57490372 229.9886734 183.28808258 230.16970825 184.02287292 C230.74430602 186.3504657 231.32535772 188.6763933 231.90653992 191.00234985 C232.3090769 192.62749453 232.71120579 194.25274034 233.11294556 195.87808228 C234.1659547 200.13363562 235.22446578 204.38780138 236.28416443 208.64169312 C237.36672168 212.99154952 238.44402027 217.34270763 239.52177429 221.6937561 C241.63319295 230.2145634 243.75043121 238.73391068 245.87138367 247.25234985 C248.8771565 247.57698104 248.8771565 247.57698104 250.63310242 245.7484436 C251.26861023 245.06910767 251.90411804 244.38977173 252.55888367 243.68984985 C255.115708 240.97421656 257.75141106 238.46515625 260.57841492 236.0375061 C265.24021768 231.99872172 269.54901854 227.64847548 273.87138367 223.25234985 C278.716796 218.3242513 283.59834445 213.56121168 288.84013367 209.05654907 C292.68103321 205.64498085 296.26052152 201.96638895 299.87138367 198.31484985 C300.64611023 197.53561157 301.42083679 196.75637329 302.21903992 195.95352173 C304.10549124 194.05542565 305.98954612 192.15501837 307.87138367 190.25234985 C304.25290338 188.22810512 300.41911336 187.13813928 296.45658875 186.00576782 C295.71633957 185.79089722 294.97609039 185.57602661 294.21340942 185.35464478 C291.77364918 184.64751139 289.33232601 183.94594789 286.89091492 183.24453735 C285.19500173 182.75445124 283.49917669 182.26406005 281.80343628 181.77337646 C278.25425465 180.747233 274.70435131 179.72363986 271.15385437 178.70205688 C266.5927834 177.38965642 262.03304695 176.0726917 257.47377491 174.75405693 C253.97497181 173.74234382 250.4757366 172.73213287 246.97633934 171.72247696 C245.2940648 171.23709014 243.61186594 170.75144092 241.92974281 170.26552963 C239.58622754 169.58900001 237.24219963 168.91427932 234.897995 168.24014282 C234.19721832 168.03756866 233.49644165 167.83499451 232.77442932 167.62628174 C229.86906111 166.66090657 229.86906111 166.66090657 226.87138367 166.25234985 Z M215.87138367 169.25234985 C214.95357117 170.18176392 214.03575867 171.11117798 213.09013367 172.0687561 C211.85068842 173.31759109 210.61109721 174.56628121 209.37138367 175.81484985 C208.77068054 176.42393188 208.16997742 177.03301392 207.55107117 177.66055298 C204.45826617 180.76980907 201.32462768 183.76650687 197.99638367 186.6234436 C193.20824443 190.75617436 188.8058161 195.24673873 184.37138367 199.75234985 C179.2926614 204.91259254 174.19254247 209.93637809 168.69755554 214.65322876 C165.96556296 217.04554847 163.41466654 219.59999983 160.87138367 222.18984985 C160.38282898 222.68291626 159.89427429 223.17598267 159.39091492 223.68399048 C158.21534842 224.87108214 157.04299541 226.06135483 155.87138367 227.25234985 C159.18356789 229.46047267 162.38040414 230.42289041 166.15678406 231.49893188 C166.89528091 231.71380249 167.63377777 231.9286731 168.39465332 232.15005493 C170.83466733 232.85853696 173.27677634 233.55947791 175.71903992 234.26016235 C177.41400934 234.75017036 179.10886775 235.24056253 180.80361938 235.73132324 C184.35433474 236.75833639 187.90603996 237.78182701 191.45854187 238.80264282 C196.01895758 240.11321364 200.57733038 241.4307263 205.13504887 242.75064278 C208.63361438 243.76333032 212.1329749 244.77324602 215.63261223 245.78222275 C217.31417518 246.26721139 218.99554801 246.75285975 220.6767292 247.23917007 C223.02218135 247.91698926 225.36861549 248.59129002 227.71537781 249.26455688 C228.41413025 249.46713104 229.11288269 249.6697052 229.83280945 249.87841797 C233.2969146 250.90567574 233.2969146 250.90567574 236.87138367 251.25234985 C235.36910668 242.10897479 233.23796159 233.1455472 231.02763367 224.1546936 C230.65405627 222.62822973 230.28056331 221.10174518 229.90715027 219.57524109 C229.1295463 216.40036951 228.34919861 213.22618667 227.56718445 210.05239868 C226.56476253 205.98205131 225.57203297 201.90940512 224.58159637 197.83612728 C223.81605595 194.6943265 223.04412197 191.55412294 222.27035522 188.41433907 C221.90125385 186.91216712 221.53446929 185.40942395 221.17004395 183.90611076 C220.66247472 181.81529869 220.14602501 179.72687817 219.62724304 177.63882446 C219.3357135 176.45066635 219.04418396 175.26250824 218.74382019 174.03834534 C218.07456381 171.14654209 218.07456381 171.14654209 215.87138367 169.25234985 Z M55.87138367 210.25234985 C59.26638012 226.17361766 63.19214158 241.96442564 67.09947205 257.76559448 C67.9793891 261.32590909 68.85691297 264.88681347 69.73466492 268.44766235 C71.44462116 275.38312272 73.15714045 282.31794773 74.87138367 289.25234985 C77.9352896 289.57429843 77.9352896 289.57429843 79.92094421 287.52749634 C80.69220642 286.73415894 81.46346863 285.94082153 82.25810242 285.1234436 C83.11468445 284.25268188 83.97126648 283.38192017 84.85380554 282.48477173 C85.74648132 281.56244751 86.6391571 280.64012329 87.55888367 279.68984985 C92.8342661 274.2820962 98.08465876 268.97949186 103.8276825 264.06900024 C108.03320088 260.33070586 111.92422892 256.25930998 115.87138367 252.25234985 C121.17889787 246.86441877 126.46565316 241.57229313 132.27763367 236.7250061 C134.11212467 235.14544989 134.11212467 235.14544989 135.87138367 232.25234985 C135.06673676 232.02097824 134.26208984 231.78960663 133.43305969 231.55122375 C125.81304612 229.36002228 118.19319171 227.16826835 110.57351112 224.97590923 C106.6571004 223.84908753 102.74063061 222.72247207 98.82402039 221.59634399 C95.03725918 220.50754241 91.25066026 219.41817811 87.46416855 218.32843971 C86.02670819 217.91484761 84.58919158 217.501451 83.15161514 217.08826256 C81.12266665 216.50506402 79.09394089 215.92109564 77.06523132 215.33706665 C75.20719879 214.8029567 75.20719879 214.8029567 73.31163025 214.25805664 C69.49328673 213.14181863 65.69549475 211.96761279 61.90760803 210.75218201 C59.57338347 210.09342127 59.57338347 210.09342127 55.87138367 210.25234985 Z M154.87138367 238.25234985 C155.45121235 243.43308942 156.27092545 248.37437696 157.51371765 253.44692993 C157.67646179 254.11627563 157.83920593 254.78562134 158.00688171 255.47525024 C158.53912296 257.65862211 159.07798372 259.8402909 159.61747742 262.0218811 C159.99262814 263.55020166 160.36754807 265.07857888 160.74224854 266.60700989 C161.52516064 269.79578429 162.31148502 272.98369316 163.10014343 276.17105103 C164.1104903 280.25594038 165.11123811 284.34311299 166.10935879 288.43100452 C166.87983319 291.58127334 167.65583497 294.73016061 168.43347359 297.87866783 C168.80488621 299.38571125 169.17446085 300.89320888 169.54215813 302.4011631 C170.05563733 304.50380957 170.57664706 306.604449 171.09965515 308.70474243 C171.3942009 309.89972855 171.68874664 311.09471466 171.99221802 312.32591248 C172.76178646 315.4041232 172.76178646 315.4041232 174.87138367 318.25234985 C183.08621743 310.83756946 191.02443979 303.1994259 198.78129578 295.30532837 C202.027763 292.01859489 205.29731015 288.83142511 208.80107117 285.8187561 C213.4949892 281.77707469 217.82948165 277.40365098 222.18388367 273.00234985 C222.98116882 272.20055298 223.77845398 271.3987561 224.59989929 270.57266235 C226.06957599 269.09433323 227.53821506 267.61497121 229.00541687 266.13418579 C230.62320892 264.5026352 232.24612018 262.8764481 233.87138367 261.25234985 C226.10899089 258.13871054 218.09307635 255.90070521 210.06669617 253.5843811 C208.53586708 253.14046106 207.00509612 252.69634055 205.47438049 252.25202942 C202.28274979 251.32637523 199.090491 250.40292964 195.89775085 249.48110962 C191.80085951 248.29807689 187.70551029 247.10980299 183.61059761 245.9199419 C180.45770287 245.00436246 177.30406535 244.09136429 174.15018845 243.17917442 C172.63884834 242.74174724 171.12773113 242.30354921 169.61684036 241.86457253 C167.51379143 241.25400236 165.40978057 240.64687035 163.3054657 240.04067993 C162.10825897 239.69443069 160.91105225 239.34818146 159.67756653 238.99143982 C157.03268996 238.16745206 157.03268996 238.16745206 154.87138367 238.25234985 Z M142.87138367 239.25234985 C142.12566101 240.00330933 141.37993835 240.7542688 140.61161804 241.52798462 C137.81118628 244.34668726 135.00730622 247.16193905 132.20243835 249.97622681 C130.99513302 251.18852234 129.78873132 252.40171855 128.58329773 253.61587524 C122.80493682 259.43496258 117.06503227 265.21386191 110.81620789 270.53237915 C106.58122057 274.27773261 102.66057126 278.36211123 98.68388367 282.37734985 C97.8079657 283.25777954 96.93204773 284.13820923 96.02958679 285.0453186 C94.36205222 286.72170286 92.69548402 288.39904918 91.03007507 290.07754517 C88.65000548 292.47538049 86.26282257 294.86586217 83.87138367 297.25234985 C110.39454669 305.42399435 137.13123328 312.82875301 163.87138367 320.25234985 C162.36635356 311.09837029 160.23628793 302.12218538 158.02763367 293.11953735 C157.65409067 291.59066941 157.28059708 290.06178939 156.90715027 288.53289795 C156.12961199 285.35381464 155.34921952 282.17544694 154.56718445 278.99746704 C153.5639644 274.91823877 152.57155468 270.83645971 151.58159637 266.7539959 C150.81679788 263.60776334 150.04463013 260.46337431 149.27035522 257.31946182 C148.90084378 255.81377148 148.53406268 254.3074084 148.17004395 252.80038071 C147.66352657 250.70669 147.14674845 248.61579884 146.62724304 246.52529907 C146.3357135 245.33492035 146.04418396 244.14454163 145.74382019 242.91809082 C145.45591614 242.0383963 145.16801208 241.15870178 144.87138367 240.25234985 C144.21138367 239.92234985 143.55138367 239.59234985 142.87138367 239.25234985 Z M79.87138367 306.25234985 C81.36569583 315.39071045 83.51977058 324.3362725 85.75028992 333.31484985 C86.12643831 334.83887467 86.50232368 336.36296442 86.87796021 337.88711548 C87.66009492 341.05771105 88.44441014 344.22775574 89.23051453 347.39736938 C90.23795957 351.45961146 91.24134275 355.52284288 92.24330235 359.58644104 C93.01689293 362.7230537 93.79184411 365.85932879 94.56728935 368.9954834 C94.93792641 370.49454701 95.30831629 371.99367176 95.67845345 373.49285889 C96.19404693 375.57967344 96.71128896 377.66607211 97.22904968 379.75234985 C97.52279984 380.93828735 97.81654999 382.12422485 98.11920166 383.34609985 C98.63374015 385.33415256 99.22199138 387.30417299 99.87138367 389.25234985 C103.62449249 387.69469058 105.9655628 385.37435546 108.79325867 382.4906311 C109.25693848 382.02174973 109.72061829 381.55286835 110.198349 381.06977844 C111.67755391 379.57283387 113.14991068 378.06939236 114.62138367 376.56484985 C116.55017674 374.59913748 118.48223718 372.63672493 120.41825867 370.6781311 C120.89041809 370.20038239 121.36257751 369.72263367 121.8490448 369.23040771 C125.08269171 365.98286766 128.44030749 362.95002892 131.92314148 359.97573853 C135.75231133 356.5885067 139.28868134 352.89619044 142.87138367 349.25234985 C147.83393577 344.20511256 152.80975452 339.30389423 158.24247742 334.76016235 C160.10717107 333.1519494 160.10717107 333.1519494 161.87138367 330.25234985 C154.38480848 327.25831585 146.67721343 325.08706256 138.93388367 322.8734436 C137.48467676 322.45677968 136.0355406 322.03986958 134.58647156 321.62272644 C131.56123956 320.7525731 128.53540783 319.8845497 125.50907898 319.01821899 C121.64844749 317.91300105 117.78899024 316.80374926 113.92993164 315.69305325 C110.9412584 314.83311519 107.95215588 313.97467773 104.96290588 313.1167469 C103.54039253 312.70842024 102.11796643 312.29978943 100.69563293 311.89083672 C93.77973082 309.90369802 86.87039313 307.929103 79.87138367 306.25234985 Z " fill="#000000" transform="translate(65.12861633300781,62.747650146484375)"/>
</svg>
